<?xml version="1.0" encoding="UTF-8" standalone="no"?>
<!-- Created with Inkscape (http://www.inkscape.org/) -->

<svg
   width="15.999972mm"
   height="16.644966mm"
   viewBox="0 0 15.999972 16.644966"
   version="1.1"
   id="svg5"
   inkscape:version="1.2.1 (9c6d41e410, 2022-07-14)"
   xml:space="preserve"
   sodipodi:docname="chicken.svg"
   xmlns:inkscape="http://www.inkscape.org/namespaces/inkscape"
   xmlns:sodipodi="http://sodipodi.sourceforge.net/DTD/sodipodi-0.dtd"
   xmlns="http://www.w3.org/2000/svg"
   xmlns:svg="http://www.w3.org/2000/svg"><sodipodi:namedview
     id="namedview7"
     pagecolor="#41a051"
     bordercolor="#1b1c21"
     borderopacity="0.74901961"
     inkscape:showpageshadow="true"
     inkscape:pageopacity="1"
     inkscape:pagecheckerboard="true"
     inkscape:deskcolor="#424450"
     inkscape:document-units="mm"
     showgrid="true"
     shape-rendering="auto"
     inkscape:zoom="16"
     inkscape:cx="28.28125"
     inkscape:cy="29.0625"
     inkscape:window-width="2536"
     inkscape:window-height="1376"
     inkscape:window-x="0"
     inkscape:window-y="0"
     inkscape:window-maximized="1"
     inkscape:current-layer="layer1" /><defs
     id="defs2"><inkscape:path-effect
       effect="spiro"
       id="path-effect2716"
       is_visible="true"
       lpeversion="1" /><inkscape:path-effect
       effect="spiro"
       id="path-effect2712"
       is_visible="true"
       lpeversion="1" /><inkscape:path-effect
       effect="spiro"
       id="path-effect2708"
       is_visible="true"
       lpeversion="1" /><inkscape:path-effect
       effect="spiro"
       id="path-effect1956"
       is_visible="true"
       lpeversion="1" /><inkscape:path-effect
       effect="spiro"
       id="path-effect1952"
       is_visible="true"
       lpeversion="1" /><inkscape:path-effect
       effect="spiro"
       id="path-effect1948"
       is_visible="true"
       lpeversion="1" /><inkscape:path-effect
       effect="spiro"
       id="path-effect1848"
       is_visible="true"
       lpeversion="1" /><inkscape:path-effect
       effect="spiro"
       id="path-effect1844"
       is_visible="true"
       lpeversion="1" /><inkscape:path-effect
       effect="spiro"
       id="path-effect329"
       is_visible="true"
       lpeversion="1" /><inkscape:path-effect
       effect="spiro"
       id="path-effect325"
       is_visible="true"
       lpeversion="1" /><inkscape:path-effect
       effect="spiro"
       id="path-effect321"
       is_visible="true"
       lpeversion="1" /><inkscape:path-effect
       effect="spiro"
       id="path-effect321-3"
       is_visible="true"
       lpeversion="1" /></defs><g
     inkscape:label="Layer 1"
     inkscape:groupmode="layer"
     id="layer1"
     transform="translate(-3.1843999,-38.977661)"><path
       style="fill:#ffcc00;stroke:none;stroke-width:0;stroke-linecap:butt;stroke-linejoin:miter;stroke-opacity:1;stroke-dasharray:none"
       d="m 16.619048,41.310453 c -0.214407,0.06017 -0.415032,0.168916 -0.58248,0.315722 -0.08207,0.07195 -0.157441,0.15374 -0.252726,0.206965 -0.0054,0.003 -0.01098,0.006 -0.01574,0.01002 -0.0048,0.004 -0.0088,0.0092 -0.01017,0.01529 -0.0014,0.0061 -2.6e-5,0.01268 0.0032,0.01804 0.0032,0.0054 0.0082,0.0096 0.01377,0.01242 0.01114,0.0057 0.02415,0.0062 0.03667,0.0063 0.121951,0.0013 0.243433,-0.01868 0.365371,-0.01649 0.0836,0.0015 0.166999,0.01347 0.247648,0.03552"
       id="path327"
       inkscape:path-effect="#path-effect329"
       inkscape:original-d="m 16.619048,41.310453 c -0.194139,0.105262 -0.388298,0.210502 -0.58248,0.315722 -0.194181,0.105219 -0.168462,0.137998 -0.252726,0.206965 -0.08426,0.06897 -0.01725,0.01689 -0.02591,0.02531 -0.0087,0.0084 0.03578,0.02455 0.05364,0.03679 0.01786,0.01224 0.243602,-0.01097 0.365371,-0.01649 0.12177,-0.0055 0.16512,0.0237 0.247648,0.03552" /><path
       style="fill:none;stroke:#ffffff;stroke-width:0.1;stroke-linecap:butt;stroke-linejoin:miter;stroke-opacity:1;stroke-dasharray:none"
       d="m 16.806686,41.048271 c 0.01026,-0.160391 0.0041,-0.321826 -0.01833,-0.480971 -9.7e-4,-0.0069 -0.002,-0.01383 -0.0014,-0.02076 0.0012,-0.01476 0.0098,-0.0284 0.02155,-0.03739 0.01177,-0.009 0.0265,-0.0136 0.04127,-0.01479 0.02402,-0.0019 0.04794,0.0048 0.07024,0.01391 0.0223,0.0091 0.04357,0.02067 0.06611,0.02916 0.03224,0.01215 0.067,0.01785 0.101389,0.01573 0.03439,-0.0021 0.06838,-0.01214 0.09796,-0.02981 0.04594,-0.02744 0.0793,-0.07159 0.121588,-0.104378 0.03378,-0.02619 0.07492,-0.0453 0.117656,-0.04438 0.03227,6.98e-4 0.06345,0.01276 0.09118,0.02929 0.02773,0.01653 0.0525,0.03749 0.07758,0.05782 0.03431,0.02782 0.07103,0.0554 0.114239,0.06461 0.03422,0.0073 0.07024,0.0023 0.103181,-0.0095 0.03294,-0.01179 0.06313,-0.03016 0.09192,-0.05003 0.0323,-0.02229 0.0632,-0.04666 0.09647,-0.06747 0.03328,-0.02081 0.0694,-0.03817 0.108088,-0.04476 0.04495,-0.0077 0.09332,3.29e-4 0.130709,0.02643 0.03107,0.02169 0.05311,0.05458 0.06684,0.0899 0.01373,0.03532 0.01969,0.07316 0.02343,0.11087 0.0033,0.03299 0.005,0.06631 0.01286,0.09851 0.0079,0.03219 0.02269,0.06376 0.04785,0.08533 0.01668,0.0143 0.03722,0.02359 0.05843,0.02933 0.02121,0.0057 0.04318,0.0081 0.0651,0.0097 0.03415,0.0025 0.06855,0.0034 0.102243,0.0095 0.0337,0.0061 0.06716,0.0179 0.09347,0.03982 0.03381,0.02816 0.05311,0.07133 0.05769,0.115087 0.0064,0.06084 -0.014,0.122217 -0.04654,0.174018 -0.0558,0.08885 -0.144132,0.151119 -0.227113,0.21532 -0.03954,0.03059 -0.07835,0.06213 -0.116384,0.09458"
       id="path1842"
       inkscape:path-effect="#path-effect1844"
       inkscape:original-d="m 16.806686,41.048271 c -0.0061,-0.160302 -0.0122,-0.320626 -0.01833,-0.480971 -0.0061,-0.160346 -9.12e-4,-0.01382 -0.0014,-0.02076 -4.89e-4,-0.0069 0.0419,-0.03477 0.06282,-0.05218 0.02092,-0.01741 0.09093,0.02873 0.136358,0.04307 0.04543,0.01434 0.132919,-0.0094 0.199346,-0.01407 0.06643,-0.0047 0.08108,-0.06956 0.121588,-0.104378 0.04051,-0.03481 0.07846,-0.02957 0.117656,-0.04438 0.0392,-0.01482 0.112527,0.0581 0.168759,0.08711 0.05623,0.02902 0.07618,0.04309 0.114239,0.06461 0.03806,0.02151 0.13009,-0.03964 0.195103,-0.0595 0.06501,-0.01985 0.136396,-0.0748 0.204562,-0.112227 0.06817,-0.03743 0.08716,0.01764 0.130709,0.02643 0.04355,0.0088 0.0602,0.133868 0.09027,0.20077 0.03007,0.0669 0.04049,0.122578 0.06071,0.183836 0.02022,0.06126 0.08237,0.02605 0.123526,0.03904 0.04115,0.01299 0.130498,0.0329 0.195716,0.04931 0.06522,0.01642 0.03848,0.07675 0.05769,0.115087 0.01921,0.03834 -0.031,0.116033 -0.04654,0.174018 -0.01553,0.05798 -0.151387,0.143568 -0.227113,0.21532 -0.07573,0.07175 -0.07757,0.06307 -0.116384,0.09458" /><path
       style="fill:none;stroke:#ffffff;stroke-width:0.1;stroke-linecap:butt;stroke-linejoin:miter;stroke-opacity:1;stroke-dasharray:none"
       d="m 5.0367365,41.44963 c -0.00678,-0.105846 0.00783,-0.213017 0.042681,-0.31319 0.018218,-0.05236 0.041831,-0.102657 0.065666,-0.152712 0.037742,-0.07926 0.07618,-0.158245 0.1186742,-0.235063 0.094483,-0.170799 0.2099047,-0.331609 0.3544335,-0.462799 0.040424,-0.03669 0.083474,-0.07128 0.1324097,-0.09548 0.085073,-0.04207 0.1885622,-0.04973 0.275563,-0.0118 0.041822,0.01823 0.079981,0.04735 0.1027284,0.0869 0.01934,0.03362 0.026671,0.07311 0.026728,0.111903 5.7e-5,0.03879 -0.00681,0.07723 -0.014267,0.115297 -0.035473,0.181124 -0.084922,0.359924 -0.1555694,0.530433 -0.1145942,0.276575 -0.2851002,0.529848 -0.4982338,0.740086"
       id="path1846"
       sodipodi:nodetypes="cscsssssssc" /><path
       style="fill:none;stroke:#ffffff;stroke-width:0.1;stroke-linecap:butt;stroke-linejoin:miter;stroke-opacity:1;stroke-dasharray:none"
       d="M 5.0418313,41.288742 C 4.9880538,41.106281 4.9363179,40.923219 4.8866366,40.7396 4.8223679,40.502068 4.7613942,40.263147 4.6761471,40.032312 c -0.011816,-0.032 -0.024227,-0.06442 -0.026396,-0.09846 -0.00187,-0.02935 0.00401,-0.05873 0.012916,-0.08675 0.00891,-0.02802 0.020838,-0.05498 0.031525,-0.08238 0.04338,-0.111209 0.066195,-0.229369 0.1054639,-0.342095 0.033087,-0.09498 0.07813,-0.186332 0.1390019,-0.266395 0.028008,-0.03684 0.059462,-0.07135 0.096038,-0.0997 0.036576,-0.02835 0.078469,-0.05045 0.1235321,-0.06097 0.066496,-0.01553 0.1378838,-0.0049 0.1994615,0.02457 0.061578,0.02951 0.1135506,0.0772 0.1527811,0.133094 0.066178,0.09428 0.095976,0.209011 0.1170724,0.322254 0.03898,0.209244 0.052348,0.425784 0.011019,0.634577 -0.014883,0.07519 -0.036788,0.14899 -0.065337,0.220125"
       id="path1946"
       sodipodi:nodetypes="cssssssssssc" /><path
       style="fill:none;stroke:#ffffff;stroke-width:0.1;stroke-linecap:butt;stroke-linejoin:miter;stroke-opacity:1;stroke-dasharray:none"
       d="m 4.6563849,39.974648 c -0.027918,-0.06653 -0.058792,-0.131822 -0.092499,-0.195615 -0.048003,-0.09085 -0.1020553,-0.17907 -0.1690036,-0.257017 -0.080738,-0.094 -0.1817118,-0.173184 -0.2986998,-0.214033 -0.067681,-0.02363 -0.1429269,-0.03385 -0.2108311,-0.01087 -0.04635,0.01569 -0.086963,0.04627 -0.1179896,0.08411 -0.031027,0.03784 -0.052774,0.08273 -0.067144,0.129503 -0.046857,0.152533 -0.015751,0.316708 0.014145,0.47345 0.035317,0.185161 0.068736,0.371572 0.1303324,0.549723 0.032092,0.09282 0.071737,0.183022 0.1184137,0.26943"
       id="path1950"
       sodipodi:nodetypes="csssssssc" /><path
       style="fill:none;stroke:#ffffff;stroke-width:0.1;stroke-linecap:butt;stroke-linejoin:miter;stroke-opacity:1;stroke-dasharray:none"
       d="M 4.8742525,41.518203 4.5828228,41.220088 C 4.484165,41.119167 4.3826964,41.019587 4.2650595,40.941613 c -0.1176369,-0.07797 -0.249758,-0.134438 -0.388013,-0.162792 -0.1478567,-0.03032 -0.3008568,-0.02919 -0.4506883,-0.01098 -0.040419,0.0049 -0.081136,0.01118 -0.1188651,0.02648 -0.037729,0.01531 -0.07265,0.04056 -0.092656,0.07602 -0.012676,0.02247 -0.018927,0.04829 -0.019605,0.07409 -6.784e-4,0.02579 0.00409,0.05156 0.012365,0.076 0.019176,0.05665 0.056661,0.10556 0.099521,0.147277 0.04286,0.04172 0.09136,0.0771 0.1379695,0.114585 0.1326058,0.106634 0.2559173,0.23405 0.4168759,0.289253 0.092124,0.0316 0.1907413,0.03722 0.2876946,0.04645 0.2141296,0.02039 0.4264557,0.05968 0.6337007,0.11727"
       id="path1954" /><path
       style="fill:none;stroke:#ffffff;stroke-width:0.1;stroke-linecap:butt;stroke-linejoin:miter;stroke-opacity:1;stroke-dasharray:none"
       d="m 3.817411,41.557378 c -0.094472,0.06861 -0.1752009,0.156064 -0.2360491,0.255712 -0.00727,0.0119 -0.014279,0.02402 -0.01942,0.03698 -0.00514,0.01296 -0.00838,0.02685 -0.00783,0.04078 9.385e-4,0.02361 0.012818,0.04584 0.029099,0.06297 0.016281,0.01713 0.036746,0.02969 0.05767,0.04068 0.129474,0.06797 0.2803732,0.08078 0.4265949,0.08259 0.2563906,0.0032 0.5131389,-0.0235 0.7634008,-0.07931"
       id="path2706" /><path
       style="fill:#ffcc00;stroke:#000000;stroke-width:0;stroke-linecap:butt;stroke-linejoin:miter;stroke-opacity:1;stroke-dasharray:none"
       d="m 13.37887,52.427624 c -0.0135,0.246857 -0.0074,0.494785 0.01828,0.740676 0.01178,0.112904 0.02783,0.226072 0.0629,0.334037 9.23e-4,0.0028 0.0019,0.0058 0.0039,0.008 0.0016,0.0018 0.0039,0.0031 0.0062,0.0039 0.0023,8.08e-4 0.0048,0.0012 0.0072,0.0016 0.0911,0.01489 0.182999,0.02539 0.273225,0.0449 0.20649,0.04466 0.399631,0.135415 0.599256,0.204566 0.227474,0.0788 0.466314,0.130626 0.678371,0.244579 0.0079,0.0042 0.01575,0.0086 0.0226,0.01431 0.0039,0.0032 0.0074,0.0069 0.01,0.01124 0.0026,0.0043 0.0042,0.0093 0.0041,0.01433 -1.23e-4,0.0074 -0.0039,0.01433 -0.0091,0.01953 -0.0052,0.0052 -0.01179,0.0088 -0.01846,0.01198 -0.02854,0.0134 -0.06032,0.01855 -0.09182,0.01993 -0.0315,0.0014 -0.06302,-8.62e-4 -0.09454,-0.0015 -0.11325,-0.0024 -0.229575,0.0154 -0.337905,-0.0177 -0.0014,-4.35e-4 -0.0029,-8.8e-4 -0.0043,-0.0011 -0.0015,-1.76e-4 -0.003,-6.7e-5 -0.0044,5.67e-4 -0.0012,5.74e-4 -0.0022,0.0016 -0.0029,0.0027 -7.31e-4,0.0011 -0.0012,0.0024 -0.0016,0.0037 -0.0014,0.0054 -6.22e-4,0.01112 0.0013,0.01631 0.002,0.0052 0.005,0.0099 0.0083,0.01437 0.03764,0.05258 0.09674,0.08454 0.1489,0.122763 0.06401,0.04692 0.119031,0.104771 0.176631,0.15937 0.0576,0.0546 0.119172,0.106899 0.191543,0.139476 0.01187,0.0053 0.02414,0.01022 0.03442,0.01819 0.0051,0.004 0.0097,0.0087 0.01313,0.01429 0.0034,0.0056 0.0055,0.01195 0.0056,0.01845 4.1e-5,0.0024 -1.83e-4,0.0047 -8.56e-4,0.007 -6.72e-4,0.0023 -0.0018,0.0044 -0.0034,0.0061 -0.0016,0.0017 -0.0037,0.0029 -0.0059,0.0037 -0.0022,8.31e-4 -0.0045,0.0013 -0.0068,0.0017 -0.02477,0.0042 -0.0503,-0.0025 -0.07297,-0.01329 -0.02267,-0.01081 -0.04311,-0.02568 -0.06423,-0.03927 -0.0903,-0.05805 -0.193271,-0.09267 -0.29466,-0.127938 -0.101388,-0.03527 -0.203797,-0.0725 -0.291213,-0.134807 -0.0089,-0.0063 -0.0176,-0.01292 -0.02701,-0.01845 -0.0094,-0.0055 -0.01957,-0.01001 -0.03033,-0.01173 -0.0025,-3.98e-4 -0.0051,-6.43e-4 -0.0075,0 -0.0016,4.24e-4 -0.0031,0.0012 -0.0043,0.0024 -0.0012,0.0012 -0.002,0.0027 -0.0022,0.0044 -2.95e-4,0.0022 5.05e-4,0.0045 0.0017,0.0064 0.0012,0.0019 0.0029,0.0034 0.0046,0.005 0.07801,0.07313 0.135391,0.165072 0.192056,0.255757 0.101893,0.163068 0.205354,0.326917 0.337702,0.466407 0.0028,0.0029 0.0057,0.006 0.0069,0.0099 5.08e-4,0.0016 6.98e-4,0.0034 4.66e-4,0.005 -2.32e-4,0.0017 -8.93e-4,0.0033 -0.002,0.0046 -9.83e-4,0.0012 -0.0023,0.0021 -0.0037,0.0028 -0.0014,6.16e-4 -0.003,9.26e-4 -0.0046,0.001 -0.0031,1.55e-4 -0.0062,-6.02e-4 -0.0092,-0.0015 -0.02764,-0.0079 -0.05185,-0.02513 -0.07255,-0.04509 -0.02071,-0.01996 -0.03836,-0.04281 -0.05705,-0.06467 -0.10068,-0.11784 -0.230314,-0.20649 -0.354947,-0.298628 -0.195858,-0.144793 -0.382759,-0.301296 -0.57608,-0.449459 -0.05074,-0.03889 -0.10215,-0.07735 -0.158192,-0.108122 -0.05604,-0.03077 -0.117199,-0.0538 -0.180863,-0.05968 -0.0811,-0.0075 -0.161784,0.01289 -0.242049,0.02672 -0.06304,0.01086 -0.127102,0.01781 -0.188124,0.037 -0.06102,0.01919 -0.120053,0.05224 -0.156728,0.104649 -0.0021,0.0029 -0.0041,0.006 -0.0073,0.0078 -0.0016,8.79e-4 -0.0034,0.0014 -0.0051,0.0012 -0.0018,-1.46e-4 -0.0035,-9.89e-4 -0.0046,-0.0024 -8.6e-4,-0.0011 -0.0012,-0.0026 -0.0012,-0.004 4e-5,-0.0014 4.91e-4,-0.0028 0.0012,-0.0041 0.0014,-0.0025 0.0036,-0.0044 0.0056,-0.0064 0.01413,-0.01352 0.02327,-0.03147 0.02996,-0.04985 0.0067,-0.01838 0.01121,-0.03748 0.01768,-0.05595 0.01784,-0.05096 0.05009,-0.09571 0.08601,-0.136017 0.03592,-0.04031 0.07583,-0.07689 0.112297,-0.116708 0.07743,-0.08455 0.139461,-0.184879 0.169524,-0.295511 0.0289,-0.10635 0.0276,-0.218636 0.01723,-0.328354 -0.01405,-0.148611 -0.04431,-0.295524 -0.05347,-0.444516 -0.0057,-0.09324 -0.0032,-0.186997 0.0077,-0.279785 z"
       id="path2710"
       inkscape:path-effect="#path-effect2712"
       inkscape:original-d="m 13.37887,52.427624 c 0.0069,0.242175 0.01156,0.498544 0.01828,0.740676 0.0067,0.242132 0.04196,0.220109 0.0629,0.334037 0.02095,0.113928 0.0026,0.0054 0.0039,0.008 0.0013,0.0027 0.009,0.0037 0.01343,0.0055 0.0045,0.0018 0.182171,0.02995 0.273225,0.0449 0.09105,0.01494 0.399526,0.136399 0.599256,0.204566 0.19973,0.06817 0.452269,0.163074 0.678371,0.244579 0.226102,0.0815 0.01509,0.0096 0.0226,0.01431 0.0075,0.0047 0.0095,0.01707 0.01415,0.02557 0.0047,0.0085 -0.01839,0.02103 -0.02761,0.03151 -0.0092,0.01048 -0.124217,0.0123 -0.186357,0.01841 -0.06214,0.0061 -0.225249,-0.01178 -0.337905,-0.0177 -0.112656,-0.0059 -0.0058,-3.26e-4 -0.0087,-4.89e-4 -0.0029,-1.63e-4 -0.003,0.0043 -0.0045,0.0064 -0.0015,0.0021 0.0064,0.02048 0.0096,0.03068 0.0032,0.01021 0.09929,0.08186 0.1489,0.122763 0.04961,0.0409 0.245471,0.199252 0.368174,0.298846 0.122702,0.09959 0.03548,0.03398 0.05318,0.05094 0.01771,0.01696 -0.0028,0.0087 -0.0043,0.01308 -0.0014,0.0043 -0.0084,0.0036 -0.01262,0.0054 -0.0042,0.0018 -0.09144,-0.03501 -0.137199,-0.05255 -0.04576,-0.01754 -0.39056,-0.175142 -0.585873,-0.262745 -0.195313,-0.0876 -0.0382,-0.0201 -0.05734,-0.03018 -0.01913,-0.01008 -0.005,2.2e-5 -0.0075,0 -0.0025,-2.1e-5 -0.0043,0.0045 -0.0065,0.0068 -0.0022,0.0022 0.0042,0.0076 0.0063,0.01133 0.0021,0.0038 0.128059,0.170527 0.192056,0.255757 0.064,0.08523 0.225156,0.310961 0.337702,0.466407 0.112544,0.155448 0.0046,0.0066 0.0069,0.0099 0.0023,0.0033 -9.52e-4,0.0065 -0.0015,0.0097 -4.88e-4,0.0032 -0.01164,0.0016 -0.01749,0.0023 -0.0059,7.33e-4 -0.08638,-0.07315 -0.129597,-0.109758 -0.04322,-0.03661 -0.23661,-0.199063 -0.354947,-0.298628 -0.118338,-0.09956 -0.384032,-0.299618 -0.57608,-0.449459 -0.192049,-0.149842 -0.226015,-0.11185 -0.339055,-0.167806 -0.11304,-0.05596 -0.161344,0.01784 -0.242049,0.02672 -0.0807,0.0089 -0.22988,0.09445 -0.344852,0.14165 -0.114972,0.0472 -0.01131,0.0044 -0.017,0.0066 -0.0057,0.0022 0.0037,-0.0097 0.0056,-0.01456 0.0018,-0.0049 0.03178,-0.07051 0.04764,-0.105793 0.01586,-0.03529 0.132229,-0.168462 0.198312,-0.252725 0.06608,-0.08426 0.113037,-0.196986 0.169524,-0.295511 0.05649,-0.09853 0.01151,-0.218881 0.01723,-0.328354 0.0057,-0.109474 -0.03562,-0.296323 -0.05347,-0.444516 -0.01784,-0.148194 0.0051,-0.186502 0.0077,-0.279785 z"
       sodipodi:nodetypes="cssscsssssssssssssssssssssssssccssssssssssssscc" /><path
       style="fill:#ffcc00;stroke:#000000;stroke-width:0;stroke-linecap:butt;stroke-linejoin:miter;stroke-opacity:1;stroke-dasharray:none"
       d="m 11.689565,52.473999 c 0.01818,0.378779 0.01601,0.758534 -0.0065,1.13708 -0.0085,0.143693 -0.01977,0.290256 0.01619,0.429639 0.01636,0.06342 0.04334,0.125797 0.08929,0.172474 0.03542,0.03599 0.08068,0.06112 0.127991,0.07876 0.04731,0.01764 0.09694,0.02816 0.146422,0.03822 0.443926,0.0902 0.902134,0.150367 1.308474,0.350603 0.02374,0.0117 0.04726,0.02386 0.07096,0.03565 0.0038,0.0019 0.0076,0.0038 0.01034,0.007 0.0013,0.0015 0.0023,0.0033 0.0026,0.0052 3.56e-4,0.0019 1.8e-5,0.0041 -0.0011,0.0057 -8.82e-4,0.0012 -0.0022,0.0021 -0.0036,0.0027 -0.0014,5.86e-4 -0.0029,9.14e-4 -0.0043,0.0012 -0.09906,0.02136 -0.201834,0.0071 -0.303165,0.0081 -0.116196,0.0011 -0.231781,0.0225 -0.347925,0.01882 -0.05128,-0.0016 -0.102683,-0.0082 -0.151558,-0.02381 -0.0025,-8.14e-4 -0.0051,-0.0017 -0.0078,-0.0018 -0.0018,-9.4e-5 -0.0036,1.36e-4 -0.0052,8.55e-4 -0.0016,7.18e-4 -0.0031,0.0019 -0.0039,0.0035 -5.96e-4,0.0012 -8.19e-4,0.0026 -7.73e-4,0.0039 4.6e-5,0.0013 3.53e-4,0.0026 7.73e-4,0.0039 0.0019,0.0059 0.0062,0.01062 0.01042,0.0151 0.09783,0.103672 0.238861,0.15172 0.364396,0.219249 0.126228,0.0679 0.239257,0.157421 0.357286,0.238743 0.0033,0.0023 0.0067,0.0046 0.0089,0.008 8.29e-4,0.0013 0.0015,0.0027 0.0017,0.0042 2.5e-4,0.0015 8.3e-5,0.0031 -6.23e-4,0.0044 -5.98e-4,0.0011 -0.0016,0.0021 -0.0027,0.0027 -0.0011,6.34e-4 -0.0024,9.89e-4 -0.0037,0.0011 -0.0025,2.83e-4 -0.0051,-2.68e-4 -0.0076,-8.23e-4 -0.16136,-0.03574 -0.315564,-0.09781 -0.474281,-0.143889 -0.115631,-0.03357 -0.233543,-0.05861 -0.351514,-0.0827 -0.01192,-0.0024 -0.02385,-0.0049 -0.0357,-0.0076 -0.002,-4.56e-4 -0.004,-9.23e-4 -0.006,-9.34e-4 -0.002,-10e-6 -0.0041,4.77e-4 -0.0057,0.0017 -0.0013,0.001 -0.0021,0.0025 -0.0025,0.0041 -3.8e-4,0.0016 -2.93e-4,0.0033 1.25e-4,0.0049 8.21e-4,0.0031 0.0029,0.0058 0.0053,0.0079 0.0024,0.0021 0.0052,0.0038 0.008,0.0054 0.0691,0.04151 0.120342,0.106522 0.169328,0.170545 0.08236,0.10764 0.163103,0.216835 0.254479,0.316934 0.02159,0.02365 0.04384,0.04688 0.06229,0.07306 0.0016,0.0023 0.0032,0.0047 0.0045,0.0072 6.47e-4,0.0013 0.0012,0.0027 0.0014,0.0041 1.88e-4,0.0014 -2.5e-5,0.003 -8.24e-4,0.0042 -5.53e-4,8.42e-4 -0.0014,0.0015 -0.0023,0.0019 -9.11e-4,4.3e-4 -0.0019,6.41e-4 -0.0029,6.89e-4 -0.002,9.4e-5 -0.004,-4.52e-4 -0.0059,-0.001 -0.0692,-0.02025 -0.12456,-0.07071 -0.182697,-0.113358 -0.0891,-0.06536 -0.1889,-0.114443 -0.282654,-0.172933 -0.08296,-0.05175 -0.161109,-0.110829 -0.242903,-0.164406 -0.203353,-0.1332 -0.427649,-0.231434 -0.63423,-0.35957 -0.01852,-0.01149 -0.03741,-0.02342 -0.05875,-0.02782 -0.01556,-0.0032 -0.03174,-0.0022 -0.04733,8.54e-4 -0.01558,0.0031 -0.03069,0.0082 -0.04575,0.0132 -0.203175,0.0679 -0.410151,0.127559 -0.60285,0.22114 -0.0048,0.0024 -0.0098,0.0048 -0.01511,0.0055 -0.0049,6.79e-4 -0.01,-1.14e-4 -0.01429,-0.0025 -0.0025,-0.0014 -0.0047,-0.0033 -0.0063,-0.0056 -0.0016,-0.0023 -0.0026,-0.0051 -0.0028,-0.0079 -2.44e-4,-0.004 0.0012,-0.0079 0.0034,-0.01129 0.0022,-0.0034 0.005,-0.0062 0.0078,-0.009 0.06745,-0.06779 0.13429,-0.13624 0.198311,-0.207281 0.113473,-0.125917 0.218097,-0.260043 0.308961,-0.403133 0.03816,-0.06009 0.07437,-0.122951 0.09033,-0.192318 0.01781,-0.07741 0.0094,-0.158216 -10e-4,-0.236968 -0.01711,-0.129843 -0.03929,-0.259202 -0.04762,-0.389902 -0.01083,-0.169859 0.0018,-0.340389 0.0213,-0.509476 0.01632,-0.141771 0.03747,-0.283786 0.03284,-0.426418 -0.002,-0.06134 -0.0088,-0.122519 -0.02022,-0.182808 z"
       id="path2714"
       inkscape:path-effect="#path-effect2716"
       inkscape:original-d="m 11.689565,52.473999 c -0.0021,0.376252 -0.0043,0.758075 -0.0065,1.13708 -0.0022,0.379005 0.01081,0.286448 0.01619,0.429639 0.0054,0.143192 0.05955,0.115004 0.08929,0.172474 0.02974,0.05747 0.182963,0.078 0.274413,0.116974 0.09145,0.03897 0.872337,0.233757 1.308474,0.350603 0.436136,0.116846 0.04733,0.02379 0.07096,0.03565 0.02363,0.01186 0.0069,0.0047 0.01034,0.007 0.0034,0.0023 0.001,0.0073 0.0015,0.01091 4.88e-4,0.0036 -0.0052,0.0026 -0.0079,0.0039 -0.0027,0.0013 -0.202088,0.0054 -0.303165,0.0081 -0.101077,0.0027 -0.231929,0.01257 -0.347925,0.01882 -0.115997,0.0063 -0.101018,-0.01585 -0.151558,-0.02381 -0.05054,-0.008 -0.0052,-0.0012 -0.0078,-0.0018 -0.0026,-5.7e-4 -0.0061,0.003 -0.0091,0.0044 -0.0031,0.0015 2.2e-5,0.0053 0,0.0078 -2.1e-5,0.0026 0.007,0.01009 0.01042,0.0151 0.0035,0.005 0.242952,0.146187 0.364396,0.219249 0.121443,0.07306 0.238212,0.159184 0.357286,0.238743 0.119074,0.07956 0.0059,0.0054 0.0089,0.008 0.0029,0.0027 8.14e-4,0.0058 0.0011,0.0086 3.26e-4,0.0029 -0.0093,0.002 -0.01394,0.003 -0.0047,9.85e-4 -0.316166,-0.09591 -0.474281,-0.143889 -0.158115,-0.04798 -0.234321,-0.05511 -0.351514,-0.0827 -0.117192,-0.02759 -0.02378,-0.005 -0.0357,-0.0076 -0.01192,-0.0025 -0.0078,5.7e-4 -0.01168,8.14e-4 -0.0039,2.44e-4 -0.0016,0.006 -0.0024,0.009 -8.22e-4,0.003 0.0089,0.0089 0.01331,0.01336 0.0044,0.0044 0.112906,0.113718 0.169328,0.170545 0.05642,0.05683 0.169674,0.211311 0.254479,0.316934 0.0848,0.105622 0.04155,0.04873 0.06229,0.07306 0.02074,0.02433 0.003,0.0048 0.0045,0.0072 0.0015,0.0024 4.07e-4,0.0055 5.7e-4,0.0083 1.63e-4,0.0027 -0.0074,0.0011 -0.01113,0.0016 -0.0037,4.88e-4 -0.121776,-0.07555 -0.182697,-0.113358 -0.06092,-0.03781 -0.188414,-0.115267 -0.282654,-0.172933 -0.09424,-0.05767 -0.161914,-0.109583 -0.242903,-0.164406 -0.08099,-0.05483 -0.422799,-0.239692 -0.63423,-0.35957 -0.211432,-0.119878 -0.03914,-0.01853 -0.05875,-0.02782 -0.0196,-0.0093 -0.06203,0.0094 -0.09308,0.01405 -0.03105,0.0047 -0.401879,0.147448 -0.60285,0.22114 -0.200971,0.07369 -0.01005,0.0037 -0.01511,0.0055 -0.0051,0.0018 -0.0095,-0.0017 -0.01429,-0.0025 -0.0048,-8.63e-4 -0.0061,-0.0089 -0.0091,-0.01344 -0.0031,-0.0045 0.0075,-0.01353 0.0112,-0.02033 0.0037,-0.0068 0.132229,-0.138165 0.198311,-0.207281 0.06608,-0.06911 0.205996,-0.268734 0.308961,-0.403133 0.102965,-0.134399 0.06024,-0.12819 0.09033,-0.192318 0.03009,-0.06413 -6.51e-4,-0.157957 -10e-4,-0.236968 -3.26e-4,-0.07901 -0.03172,-0.259914 -0.04762,-0.389902 -0.01589,-0.129989 0.01422,-0.339629 0.0213,-0.509476 0.0071,-0.169846 0.02192,-0.284257 0.03284,-0.426418 0.01093,-0.142161 -0.01346,-0.121851 -0.02022,-0.182808 z"
       sodipodi:nodetypes="cscscssccssccccscsscccsscsccssssccsscsccscccsssscccccc" /><path
       id="path40505"
       style="opacity:1;fill:#ffffff;fill-opacity:1;stroke:#a13939;stroke-width:0;stroke-linecap:round"
       d="m 17.597359,41.577801 a 0.1749994,0.17499969 0 0 1 -0.175,0.174999 0.1749994,0.17499969 0 0 1 -0.174999,-0.174999 0.1749994,0.17499969 0 0 1 0.174999,-0.175 0.1749994,0.17499969 0 0 1 0.175,0.175 z" /><path
       id="path42848"
       style="fill:#225500;fill-opacity:1;stroke:none;stroke-width:0;stroke-linecap:butt;stroke-linejoin:miter;stroke-dasharray:none;stroke-opacity:1"
       d="m 17.100863,40.872637 c -0.147427,0.05745 -0.277848,0.157287 -0.375688,0.281636 -0.131443,0.167063 -0.202808,0.373038 -0.254248,0.579293 -0.05144,0.206254 -0.08533,0.417216 -0.153479,0.618567 -0.138101,0.408002 -0.413507,0.761205 -0.747241,1.033529 -0.333732,0.272323 -0.724163,0.468109 -1.12758,0.619083 -1.277089,0.477931 -2.679223,0.519448 -4.036962,0.393258 C 9.8089483,44.342542 9.2138634,44.255646 8.6357467,44.097762 8.0151094,43.928266 7.4135087,43.675637 6.8808151,43.314864 6.3481216,42.954091 5.8850821,42.482767 5.5703008,41.921667 5.5116254,41.817078 5.4575038,41.70828 5.3770309,41.61936 5.3367939,41.5749 5.2901629,41.53545 5.2369878,41.507739 c -0.053175,-0.02771 -0.1131931,-0.04354 -0.1731161,-0.04134 -0.057194,0.0021 -0.1137869,0.02077 -0.1601969,0.05426 -0.04641,0.03349 -0.082276,0.08157 -0.1002523,0.135909 -0.015926,0.04815 -0.017782,0.09995 -0.012402,0.150379 0.00538,0.05043 0.017879,0.100095 0.029972,0.149345 0.318673,1.297785 0.4450289,2.635352 0.7281209,3.941361 0.4094472,1.888932 1.1936112,3.771234 2.6416993,5.051371 L 10.362773,49.00444 C 9.4320506,48.219779 8.6696262,47.24932 8.0378504,46.208745 c -0.040856,-0.06729 -0.082218,-0.137713 -0.090434,-0.216007 -0.00896,-0.08534 0.023776,-0.171846 0.077515,-0.238745 0.053739,-0.0669 0.1269911,-0.115918 0.2046387,-0.152446 0.1669704,-0.07855 0.3591855,-0.102808 0.5405355,-0.06873 0.2923136,0.04711 0.5813151,0.114602 0.8640299,0.202572 0.3917625,0.121901 0.7717585,0.282529 1.1704715,0.379305 0.911264,0.221184 1.887238,0.09498 2.754353,-0.261999 0.470566,-0.193727 0.912246,-0.452441 1.381828,-0.64854 0.199832,-0.08345 0.41303,-0.156599 0.627352,-0.149861 0.03062,9.62e-4 0.06136,0.0033 0.09198,0.0078 0.142646,0.02056 0.283374,0.08484 0.37207,0.198438 0.0799,0.102331 0.111139,0.236559 0.110071,0.366386 -0.0011,0.129826 -0.03191,0.257405 -0.06511,0.382922 -0.242836,0.918275 -0.623774,1.80662 -1.184941,2.572969 -0.297336,0.406055 -0.650855,0.781189 -1.087788,1.030945 -0.616091,0.352165 -1.381058,0.428063 -2.058273,0.216008 -0.515999,-0.161576 -0.969978,-0.47675 -1.383378,-0.825273 l -2.1719583,1.944534 c 1.5096716,1.334579 3.6861833,1.87514 5.6435833,1.396814 1.27088,-0.310561 2.432632,-1.026669 3.316076,-1.991609 0.883445,-0.96494 1.490968,-2.172111 1.785421,-3.446818 0.205791,-0.890883 0.261537,-1.811654 0.228927,-2.725416 -0.02004,-0.561758 -0.07454,-1.12793 -0.248564,-1.66243 -0.141891,-0.435813 -0.362916,-0.846509 -0.65474,-1.199927 -0.171433,-0.207616 -0.378759,-0.4024 -0.638204,-0.47439 -0.07485,-0.02077 -0.15231,-0.0305 -0.22996,-0.02945 -0.09984,0.0013 -0.199439,0.02058 -0.292489,0.05684 l 0.178254,0.5423 0.06038,-0.03423 0.06784,-0.01445 0.06484,7.26e-4 0.07034,0.0268 0.05018,0.05586 0.02962,0.06072 0.0117,0.06879 -0.0085,0.06757 -0.03219,0.05109 -0.03865,0.04486 -0.05828,0.03323 -0.07766,0.01417 -0.05839,-0.0071 -0.05618,-0.02543 -0.05093,-0.04246 -0.03115,-0.04829 -0.01079,-0.05138 -4.8e-5,-0.05645 0.0089,-0.0544 0.0238,-0.04915 0.03516,-0.04043 z"
       sodipodi:nodetypes="ccscscssssscsscscsccscsscssssscsccsssccssscsssccccccccccccccccccccccccc" /></g></svg>
